<svg xmlns="http://www.w3.org/2000/svg" width="375" viewBox="0 0 375 375" height="375" version="1.0"><g><g><g><path d="M 3.347656 0.132812 C 6.023438 0.667969 8.765625 1.003906 11.445312 1.003906 C 20.613281 1.003906 28.914062 -2.476562 29.515625 -11.378906 L 29.515625 -46.984375 L 24.160156 -46.984375 L 24.160156 -10.308594 C 24.160156 -3.613281 20.078125 0.0664062 14.457031 0.0664062 C 11.3125 0.0664062 7.628906 -1.203125 3.613281 -3.882812 Z M 3.347656 0.132812" transform="translate(129.607 141.511)"/></g></g></g><g><g><g><path d="M 22.421875 0.9375 C 27.507812 0.9375 32.996094 -0.871094 38.082031 -5.019531 L 36.945312 -9.035156 C 31.925781 -2.742188 26.636719 0.199219 22.019531 0.199219 C 14.1875 0.199219 8.03125 -7.363281 7.761719 -19.007812 L 37.546875 -19.007812 C 37.878906 -20.546875 38.082031 -22.085938 38.082031 -23.492188 C 38.082031 -34.46875 30.050781 -39.820312 21.683594 -39.820312 C 12.316406 -39.820312 2.410156 -33.195312 2.410156 -20.210938 C 2.410156 -7.5625 11.511719 0.9375 22.421875 0.9375 Z M 7.761719 -19.808594 C 7.832031 -32.59375 15.058594 -39.019531 21.816406 -39.019531 C 27.773438 -39.019531 33.398438 -34.066406 33.398438 -24.027344 C 33.398438 -22.621094 33.261719 -21.28125 32.929688 -19.808594 Z M 7.761719 -19.808594" transform="translate(163.803 141.511)"/></g></g></g><g><g><g><path d="M 15.59375 1.070312 C 22.488281 1.070312 27.910156 -4.683594 30.25 -14.523438 L 30.453125 -14.523438 L 30.453125 0 L 35.804688 0 L 35.804688 -38.683594 L 30.453125 -38.683594 L 30.453125 -19.808594 C 29.515625 -8.300781 23.492188 -0.132812 16.730469 -0.132812 C 12.648438 -0.132812 9.234375 -3.011719 9.234375 -9.167969 L 9.234375 -38.683594 L 3.882812 -38.683594 L 3.882812 -10.375 C 3.882812 -2.542969 9.371094 1.070312 15.59375 1.070312 Z M 15.59375 1.070312" transform="translate(205.026 141.511)"/></g></g></g><g><g><g><path d="M 10.039062 -26.035156 L 34.800781 -26.035156 L 34.800781 -26.835938 L 10.039062 -26.835938 L 10.039062 -46.179688 C 22.6875 -46.179688 31.320312 -45.375 38.148438 -42.96875 L 38.148438 -46.984375 L 4.683594 -46.984375 L 4.683594 0 L 39.152344 0 L 39.152344 -4.015625 C 31.054688 -1.339844 22.421875 -0.871094 10.039062 -0.871094 Z M 10.039062 -26.035156" transform="translate(22.603 207.605)"/></g></g></g><g><g><g><path d="M 28.242188 -39.820312 C 22.285156 -39.820312 14.457031 -35.070312 8.902344 -25.03125 L 8.902344 -38.683594 L 3.546875 -38.683594 L 3.546875 0 L 8.902344 0 L 8.902344 -23.558594 C 13.519531 -32.59375 20.8125 -38.082031 25.902344 -38.082031 C 29.113281 -38.082031 31.390625 -35.804688 31.390625 -30.71875 L 31.390625 0 L 36.742188 0 L 36.742188 -30.316406 C 36.742188 -36.875 32.792969 -39.820312 28.242188 -39.820312 Z M 28.242188 -39.820312" transform="translate(66.034 207.605)"/></g></g></g><g><g><g><path d="M 26.035156 1.003906 C 29.449219 1.003906 33.128906 0.335938 36.609375 -1.070312 L 35.941406 -5.085938 C 31.523438 -2.007812 27.304688 -0.46875 23.625 -0.46875 C 14.1875 -0.46875 7.761719 -7.832031 7.761719 -20.347656 C 7.761719 -31.855469 13.519531 -38.816406 22.554688 -38.816406 C 26.503906 -38.816406 31.390625 -37.210938 35.941406 -34.132812 L 36.476562 -38.148438 C 32.394531 -39.285156 28.042969 -39.886719 24.292969 -39.886719 C 9.703125 -39.886719 2.410156 -32.324219 2.410156 -20.546875 C 2.410156 -6.757812 13.117188 1.003906 26.035156 1.003906 Z M 26.035156 1.003906" transform="translate(107.323 207.605)"/></g></g></g><g><g><g><path d="M 8.902344 0 L 8.902344 -14.390625 C 10.574219 -30.71875 18.40625 -37.679688 23.757812 -37.679688 C 27.976562 -37.679688 31.320312 -34.199219 31.320312 -28.378906 L 31.1875 0 L 36.542969 0 L 36.542969 -27.910156 C 36.542969 -35.539062 31.722656 -39.820312 26.101562 -39.820312 C 18.875 -39.820312 11.644531 -32.929688 9.035156 -19.808594 L 8.902344 -19.808594 L 8.902344 -46.984375 L 3.546875 -46.984375 L 3.546875 0 Z M 8.902344 0" transform="translate(146.404 207.605)"/></g></g></g><g><g><g><path d="M 15.460938 1.003906 C 20.414062 1.003906 25.765625 -1.671875 29.78125 -5.890625 L 29.78125 0 L 35.136719 0 L 35.136719 -27.976562 C 35.136719 -36.808594 28.914062 -39.886719 21.550781 -39.886719 C 16.398438 -39.886719 10.773438 -38.417969 6.359375 -36.273438 L 7.429688 -31.925781 C 11.578125 -36.339844 17.199219 -39.152344 22.019531 -39.152344 C 26.503906 -39.152344 29.78125 -36.675781 29.78125 -30.921875 C 15.792969 -27.910156 2.945312 -22.421875 2.945312 -10.976562 C 2.945312 -3.613281 7.964844 1.003906 15.460938 1.003906 Z M 17.265625 -0.667969 C 12.382812 -0.667969 8.300781 -3.949219 8.300781 -11.578125 C 8.300781 -19.878906 13.386719 -26.769531 29.78125 -30.117188 L 29.78125 -6.757812 C 26.703125 -3.347656 21.683594 -0.667969 17.265625 -0.667969 Z M 17.265625 -0.667969" transform="translate(187.493 207.605)"/></g></g></g><g><g><g><path d="M 28.242188 -39.820312 C 22.285156 -39.820312 14.457031 -35.070312 8.902344 -25.03125 L 8.902344 -38.683594 L 3.546875 -38.683594 L 3.546875 0 L 8.902344 0 L 8.902344 -23.558594 C 13.519531 -32.59375 20.8125 -38.082031 25.902344 -38.082031 C 29.113281 -38.082031 31.390625 -35.804688 31.390625 -30.71875 L 31.390625 0 L 36.742188 0 L 36.742188 -30.316406 C 36.742188 -36.875 32.792969 -39.820312 28.242188 -39.820312 Z M 28.242188 -39.820312" transform="translate(227.11 207.605)"/></g></g></g><g><g><g><path d="M 17.667969 1.339844 C 22.085938 1.339844 26.636719 -1.003906 28.980469 -5.753906 L 27.304688 -9.035156 C 24.695312 -2.742188 20.414062 0.601562 16.796875 0.601562 C 13.519531 0.601562 10.707031 -2.074219 10.707031 -7.160156 L 10.707031 -37.878906 L 21.082031 -37.878906 L 21.082031 -38.683594 L 10.707031 -38.683594 L 10.640625 -53.675781 L 9.839844 -53.675781 C 9.839844 -47.519531 8.699219 -42.566406 6.023438 -38.683594 L 1.339844 -38.683594 L 1.339844 -37.878906 L 5.355469 -37.878906 L 5.355469 -10.773438 C 5.355469 -3.011719 11.445312 1.339844 17.667969 1.339844 Z M 17.667969 1.339844" transform="translate(268.399 207.605)"/></g></g></g><g><g><g><path d="M 22.421875 0.9375 C 27.507812 0.9375 32.996094 -0.871094 38.082031 -5.019531 L 36.945312 -9.035156 C 31.925781 -2.742188 26.636719 0.199219 22.019531 0.199219 C 14.1875 0.199219 8.03125 -7.363281 7.761719 -19.007812 L 37.546875 -19.007812 C 37.878906 -20.546875 38.082031 -22.085938 38.082031 -23.492188 C 38.082031 -34.46875 30.050781 -39.820312 21.683594 -39.820312 C 12.316406 -39.820312 2.410156 -33.195312 2.410156 -20.210938 C 2.410156 -7.5625 11.511719 0.9375 22.421875 0.9375 Z M 7.761719 -19.808594 C 7.832031 -32.59375 15.058594 -39.019531 21.816406 -39.019531 C 27.773438 -39.019531 33.398438 -34.066406 33.398438 -24.027344 C 33.398438 -22.621094 33.261719 -21.28125 32.929688 -19.808594 Z M 7.761719 -19.808594" transform="translate(298.312 207.605)"/></g></g></g><g><g><g><path d="M 5.554688 -39.621094 L 9.035156 -53.609375 L 4.683594 -53.609375 L 4.683594 -39.621094 Z M 5.554688 -39.621094" transform="translate(339.534 207.605)"/></g></g></g><g fill="#5B6E74"><g><g><path d="M 4.976562 0 L 4.976562 -0.675781 L 1.507812 -0.675781 L 1.507812 -3.1875 L 4.871094 -3.1875 L 4.871094 -3.875 L 1.507812 -3.875 L 1.507812 -6.386719 L 4.976562 -6.386719 L 4.976562 -7.0625 L 0.777344 -7.0625 L 0.777344 0 Z M 4.976562 0" transform="translate(108.777 226.23)"/></g></g></g><g fill="#5B6E74"><g><g><path d="M 1.507812 -5.203125 L 5.472656 0.4375 L 5.472656 -7.0625 L 4.746094 -7.0625 L 4.746094 -1.871094 L 0.777344 -7.511719 L 0.777344 0 L 1.507812 0 Z M 1.507812 -5.203125" transform="translate(120.432 226.23)"/></g></g></g><g fill="#5B6E74"><g><g><path d="M 7.261719 -2.160156 L 6.460938 -2.160156 C 6.210938 -1.703125 5.867188 -1.328125 5.433594 -1.058594 C 4.996094 -0.777344 4.507812 -0.644531 3.988281 -0.644531 C 3.210938 -0.644531 2.542969 -0.925781 1.996094 -1.507812 C 1.453125 -2.058594 1.195312 -2.730469 1.195312 -3.519531 C 1.195312 -4.3125 1.453125 -4.984375 1.996094 -5.546875 C 2.242188 -5.804688 2.542969 -6.015625 2.886719 -6.171875 C 3.21875 -6.324219 3.550781 -6.410156 3.886719 -6.410156 C 4.207031 -6.410156 4.488281 -6.367188 4.738281 -6.292969 C 5.496094 -6.066406 6.066406 -5.609375 6.449219 -4.914062 L 7.25 -4.914062 C 6.980469 -5.578125 6.554688 -6.117188 5.960938 -6.535156 C 5.359375 -6.949219 4.707031 -7.15625 3.988281 -7.15625 C 3 -7.15625 2.171875 -6.792969 1.484375 -6.078125 C 1.164062 -5.742188 0.914062 -5.347656 0.738281 -4.914062 C 0.550781 -4.476562 0.46875 -4.007812 0.46875 -3.519531 C 0.46875 -2.523438 0.800781 -1.683594 1.484375 -0.976562 C 2.171875 -0.25 3 0.105469 3.988281 0.105469 C 4.707031 0.105469 5.359375 -0.105469 5.972656 -0.519531 C 6.566406 -0.933594 6.992188 -1.476562 7.261719 -2.160156 Z M 7.261719 -2.160156" transform="translate(132.585 226.23)"/></g></g></g><g fill="#5B6E74"><g><g><path d="M 1.507812 0 L 1.507812 -3.15625 L 4.714844 -3.15625 L 4.714844 0 L 5.441406 0 L 5.441406 -7.0625 L 4.714844 -7.0625 L 4.714844 -3.886719 L 1.507812 -3.886719 L 1.507812 -7.0625 L 0.777344 -7.0625 L 0.777344 0 Z M 1.507812 0" transform="translate(146.057 226.23)"/></g></g></g><g fill="#5B6E74"><g><g><path d="M 1.921875 -2.597656 L 3.210938 -5.847656 L 4.488281 -2.597656 Z M 6.304688 0 L 3.210938 -7.550781 L 0.105469 0 L 0.894531 0 L 1.652344 -1.921875 L 4.757812 -1.921875 L 5.515625 0 Z M 6.304688 0" transform="translate(158.179 226.23)"/></g></g></g><g fill="#5B6E74"><g><g><path d="M 1.507812 -5.203125 L 5.472656 0.4375 L 5.472656 -7.0625 L 4.746094 -7.0625 L 4.746094 -1.871094 L 0.777344 -7.511719 L 0.777344 0 L 1.507812 0 Z M 1.507812 -5.203125" transform="translate(170.488 226.23)"/></g></g></g><g fill="#5B6E74"><g><g><path d="M 0.207031 -6.410156 L 1.921875 -6.410156 L 1.921875 -0.0195312 L 2.648438 -0.0195312 L 2.648438 -6.410156 L 4.363281 -6.410156 L 4.363281 -7.085938 L 0.207031 -7.085938 Z M 0.207031 -6.410156" transform="translate(182.64 226.23)"/></g></g></g><g fill="#5B6E74"><g><g><path d="M 4.976562 0 L 4.976562 -0.675781 L 1.507812 -0.675781 L 1.507812 -3.1875 L 4.871094 -3.1875 L 4.871094 -3.875 L 1.507812 -3.875 L 1.507812 -6.386719 L 4.976562 -6.386719 L 4.976562 -7.0625 L 0.777344 -7.0625 L 0.777344 0 Z M 4.976562 0" transform="translate(193.111 226.23)"/></g></g></g><g fill="#5B6E74"><g><g><path d="M 6.261719 -3.53125 C 6.261719 -4.039062 6.160156 -4.507812 5.972656 -4.945312 C 5.785156 -5.378906 5.527344 -5.753906 5.203125 -6.066406 C 4.871094 -6.378906 4.488281 -6.617188 4.050781 -6.792969 C 3.605469 -6.96875 3.125 -7.0625 2.628906 -7.0625 L 0.777344 -7.0625 L 0.777344 0 L 2.628906 0 C 3.125 0 3.605469 -0.0820312 4.050781 -0.257812 C 4.488281 -0.4375 4.871094 -0.6875 5.203125 -0.996094 C 5.527344 -1.308594 5.785156 -1.671875 5.972656 -2.109375 C 6.160156 -2.542969 6.261719 -3.011719 6.261719 -3.53125 Z M 5.558594 -3.53125 C 5.558594 -2.722656 5.265625 -2.046875 4.707031 -1.515625 C 4.144531 -0.988281 3.457031 -0.726562 2.648438 -0.726562 L 1.507812 -0.726562 L 1.507812 -6.335938 L 2.648438 -6.335938 C 3.457031 -6.335938 4.144531 -6.066406 4.707031 -5.546875 C 5.265625 -5.007812 5.558594 -4.332031 5.558594 -3.53125 Z M 5.558594 -3.53125" transform="translate(204.766 226.23)"/></g></g></g><g fill="#5B6E74"><g><g><path d="M 1.507812 -3.5 L 1.507812 -6.367188 L 3.148438 -6.367188 C 3.574219 -6.367188 3.914062 -6.230469 4.175781 -5.972656 C 4.425781 -5.703125 4.558594 -5.371094 4.558594 -4.953125 C 4.558594 -4.527344 4.425781 -4.1875 4.15625 -3.90625 C 3.886719 -3.636719 3.550781 -3.5 3.148438 -3.5 Z M 5.285156 -4.933594 C 5.285156 -5.558594 5.058594 -6.066406 4.621094 -6.472656 C 4.1875 -6.867188 3.667969 -7.0625 3.042969 -7.0625 L 0.777344 -7.0625 L 0.777344 0 L 1.507812 0 L 1.507812 -2.792969 L 3.042969 -2.792969 C 3.667969 -2.792969 4.195312 -2.992188 4.621094 -3.386719 C 5.058594 -3.800781 5.285156 -4.3125 5.285156 -4.933594 Z M 5.285156 -4.933594" transform="translate(226.101 226.23)"/></g></g></g><g fill="#5B6E74"><g><g><path d="M 1.507812 -0.726562 L 1.507812 -7.0625 L 0.777344 -7.0625 L 0.777344 0 L 4.03125 0 L 4.03125 -0.726562 Z M 1.507812 -0.726562" transform="translate(237.496 226.23)"/></g></g></g><g fill="#5B6E74"><g><g><path d="M 1.921875 -2.597656 L 3.210938 -5.847656 L 4.488281 -2.597656 Z M 6.304688 0 L 3.210938 -7.550781 L 0.105469 0 L 0.894531 0 L 1.652344 -1.921875 L 4.757812 -1.921875 L 5.515625 0 Z M 6.304688 0" transform="translate(247.634 226.23)"/></g></g></g><g fill="#5B6E74"><g><g><path d="M 3.511719 -3.324219 L 6.179688 -7.0625 L 5.257812 -7.0625 L 3.148438 -4.039062 L 1.039062 -7.0625 L 0.105469 -7.0625 L 2.785156 -3.3125 L 2.785156 0 L 3.511719 0 Z M 3.511719 -3.324219" transform="translate(259.943 226.23)"/></g></g></g></svg>